<svg width="176" height="43" viewBox="0 0 176 43" fill="none" xmlns="http://www.w3.org/2000/svg">
<path d="M53.3746 4.24072C52.0033 4.24072 38.0875 4.24072 38.0875 4.24072L26 30.8789H38.6969L41.8712 23.1845C51.2415 23.4893 58.7835 22.2704 61.9578 13.9666C65.4621 4.87557 57.2091 4.24072 53.3746 4.24072ZM50.5305 13.5603C49.9718 15.5156 47.7118 16.0235 44.6899 16.0235L46.7976 11.0971H49.5655C49.5655 11.0971 51.0892 11.6049 50.5305 13.5603Z" fill="#290079"/>
<path d="M86.0313 30.6757L85.5234 4.24072H72.2678L51.5718 30.8789H64.2687L66.6811 26.8413H74.731L74.6294 30.6757H86.0313ZM71.2266 19.8579L76.0007 12.7477V19.8579H71.2266Z" fill="#290079"/>
<path d="M85.4725 30.6757L96.5443 4.24072H107.565L104.01 12.7477L112.568 4.24072H124.909L111.4 16.9884L114.168 30.6757H102.233L100.582 20.569L96.5951 30.6757H85.4725Z" fill="#290079"/>
<path d="M131.435 30.8535C138.774 30.8535 144.742 24.8859 144.742 17.5471C144.742 10.2083 138.774 4.24072 131.435 4.24072C124.097 4.24072 118.129 10.2083 118.129 17.5471C118.129 24.8859 124.097 30.8535 131.435 30.8535Z" fill="#290079"/>
<path d="M140.806 8.12604C141.542 8.86246 142.202 9.70045 142.761 10.6146L157.134 0L140.806 8.12604Z" fill="#AFE403"/>
<path d="M139.231 13.2048C137.53 12.3922 135.778 11.8081 134.203 11.4018L120.922 18.0042L128.667 19.9595L102.131 42.6616L142.482 17.0392L135.93 15.6426L139.231 13.2048Z" fill="#AFE403"/>
</svg>
