<svg width="500" height="500" viewBox="0 0 500 500" fill="none" xmlns="http://www.w3.org/2000/svg">
<path d="M497 250C497 113.586 386.414 3 250 3C113.586 3 3 113.586 3 250C3 386.414 113.586 497 250 497V500C111.929 500 0 388.071 0 250C0 111.929 111.929 0 250 0C388.071 0 500 111.929 500 250C500 388.071 388.071 500 250 500V497C386.414 497 497 386.414 497 250Z" fill="#5B5B5B"/>
<path d="M450 497V500H50V497H450ZM497 450V50C497 24.0426 475.957 3 450 3H50C24.0426 3 3.00001 24.0426 3 50V450C3 475.957 24.0426 497 50 497V500C22.6016 500 0.350039 477.963 0.00390625 450.646L0 450V50C6.44344e-06 22.3858 22.3858 4.02663e-07 50 0H450L450.646 0.00390625C477.963 0.350045 500 22.6016 500 50V450L499.996 450.646C499.653 477.748 477.748 499.653 450.646 499.996L450 500V497C475.957 497 497 475.957 497 450Z" fill="#5B5B5B"/>
<path d="M425 472V475H75V472H425ZM472 425V75C472 49.0426 450.957 28 425 28H75C49.0426 28 28 49.0426 28 75V425C28 450.957 49.0426 472 75 472V475L74.3535 474.996C47.2524 474.653 25.3473 452.748 25.0039 425.646L25 425V75C25 47.3858 47.3858 25 75 25H425C452.614 25 475 47.3858 475 75V425C475 452.398 452.963 474.65 425.646 474.996L425 475V472C450.957 472 472 450.957 472 425Z" fill="#5B5B5B"/>
<path d="M450 422V425H50V422H450ZM497 375V125C497 99.0426 475.957 78 450 78H50C24.0426 78 3 99.0426 3 125V375C3 400.957 24.0426 422 50 422V425C22.6016 425 0.35004 402.963 0.00390625 375.646L0 375V125C0 97.3858 22.3858 75 50 75H450L450.646 75.0039C477.963 75.35 500 97.6016 500 125V375C500 402.398 477.963 424.65 450.646 424.996L450 425V422C475.957 422 497 400.957 497 375Z" fill="#5B5B5B"/>
<path d="M422 50L425 50L425 450L422 450L422 50ZM375 2.99999L125 3C99.0426 3 78 24.0426 78 50L78 450C78 475.957 99.0426 497 125 497L375 497C400.957 497 422 475.957 422 450L425 450C425 477.398 402.963 499.65 375.646 499.996L375 500L125 500C97.3858 500 75 477.614 75 450L75 50L75.0039 49.3535C75.35 22.0372 97.6016 2.10757e-07 125 -2.18557e-06L375 -1.31134e-05C402.398 -1.4311e-05 424.65 22.0372 424.996 49.3535L425 50L422 50C422 24.0426 400.957 2.99999 375 2.99999Z" fill="#5B5B5B"/>
<path d="M36 420L242.521 241.073L182.18 225.707L464 84L298.953 207.268L349.946 218.195L36 420Z" fill="#434343"/>
<path d="M298.953 207.268L349.946 218.195L36 420L242.521 241.073L182.18 225.707L464 84L298.953 207.268ZM190.699 224.78L248.823 239.582L69.7041 394.768L342.205 219.604L291.865 208.817L434.896 101.991L190.699 224.78Z" fill="#5B5B5B"/>
</svg>
