<svg width="557" height="208" viewBox="0 0 557 208" fill="none" xmlns="http://www.w3.org/2000/svg">
<path d="M112.6 64.7C112.614 64.7056 112.628 64.711 112.643 64.7176C112.772 64.7739 112.963 64.865 113.189 64.9969C113.644 65.2621 114.227 65.683 114.748 66.3045C115.747 67.498 116.642 69.5753 115.628 73.1248C114.638 76.5871 112.158 78.8142 108.383 80.199C104.896 81.4778 100.376 82.0036 95.1101 82.0858L102.55 64.7H112.6Z" fill="white" stroke="#290079" stroke-width="2"/>
<path d="M215.889 97.2H199.966L215.889 73.4832V97.2Z" fill="white" stroke="#290079" stroke-width="2"/>
<path d="M536.39 1C536.995 1 537.417 1.00139 537.925 1.08594L537.955 1.0918L537.984 1.09473C541.612 1.47655 545.038 2.81211 547.785 4.89648L547.801 4.9082L547.816 4.91895C548.753 5.57478 549.594 6.32322 550.342 7.16406L550.352 7.17578L550.362 7.18555C553.487 10.4996 555.39 15.0544 555.39 20.0996C555.39 23.8918 554.254 27.4889 552.275 30.4189C551.29 31.7978 550.246 33.1204 548.938 34.2412L548.909 34.2656L548.883 34.293C548.435 34.7407 547.987 35.0996 547.435 35.4678L547.416 35.4805L547.397 35.4941L503.997 67.3945L503.436 67.8066L503.629 68.4766C505.505 74.9949 506.59 81.9019 506.59 89C506.59 128.348 474.537 160.4 435.189 160.4C425.526 160.4 416.255 158.428 407.87 154.976L407.391 154.778L406.953 155.056L329.953 203.956C326.821 205.95 323.307 206.9 319.789 206.9C313.892 206.9 308.197 204.239 304.494 199.207C298.6 191.122 299.845 179.915 307.438 173.462L307.44 173.459L321.44 161.459L323.493 159.7H320.189C316.305 159.7 312.694 158.469 309.639 156.464L309.076 156.096L308.523 156.476C305.494 158.558 301.792 159.7 297.989 159.7H211.59C206.615 159.7 201.917 157.828 198.348 154.345L198.006 154.002C195.63 151.529 194.014 148.582 193.156 145.344L192.959 144.6H191.021L190.73 145.088L187.032 151.285C183.615 156.981 177.342 160.5 170.689 160.5H120.689C113.371 160.5 106.819 156.417 103.587 149.858L103.581 149.847L103.315 149.302C100.67 143.636 101.126 136.966 104.439 131.627L105.483 129.945L103.51 130.104C101.038 130.301 98.4644 130.4 95.7891 130.4H95.1191L94.8643 131.021L87.5654 148.818C84.6192 155.946 77.6824 160.6 69.9893 160.6H19.9893C13.5358 160.6 7.54814 157.278 4.02832 151.855C0.516719 146.446 0.0380221 139.606 2.7002 133.711L50.2998 28.8135L50.3008 28.8105C53.3372 22.0737 60.1782 17.7002 67.5898 17.7002H127.989C136.628 17.7002 143.947 18.4949 150.454 20.0723V20.0713C162.17 22.9267 171.048 28.5155 176.883 36.4902L177.667 37.5625L178.48 36.5117L187.373 25.0195L187.374 25.0205C190.99 20.4537 196.504 17.7002 202.39 17.7002H254.59C264.947 17.7004 273.4 25.966 273.59 36.3184V36.3232L273.689 40.623L275.61 40.9893L280.511 29.3887L280.514 29.3818C283.459 22.2568 290.293 17.7003 297.989 17.7002H341.39C344.702 17.7002 347.937 18.6478 350.706 20.1758L351.204 20.4502L351.695 20.1631C354.435 18.5571 357.659 17.7002 360.989 17.7002H409.59C412.541 17.7002 415.388 18.3672 417.843 19.5947L418.167 19.7568L418.52 19.6729C423.947 18.39 429.57 17.7002 435.289 17.7002C449.59 17.7002 463.001 21.9405 474.142 29.2363L474.621 29.5508L475.135 29.2959L527.635 3.19531L527.657 3.18457L527.68 3.17188C529.159 2.33969 530.952 1.76708 532.796 1.37891L532.805 1.37695L532.814 1.37402C534.024 1.09497 535.146 1 536.39 1Z" fill="white" stroke="#290079" stroke-width="2"/>
<path d="M127.79 36.7C122.39 36.7 67.5895 36.7 67.5895 36.7L19.9895 141.6H69.9895L82.4895 111.3C119.39 112.5 149.09 107.7 161.59 75C175.39 39.2 142.89 36.7 127.79 36.7ZM116.59 73.4C114.39 81.1 105.49 83.1 93.5895 83.1L101.89 63.7H112.79C112.79 63.7 118.79 65.7 116.59 73.4Z" fill="#290079"/>
<path d="M256.389 140.8L254.389 36.7H202.189L120.689 141.6H170.689L180.189 125.7H211.889L211.489 140.8H256.389ZM198.089 98.2L216.889 70.2V98.2H198.089Z" fill="#290079"/>
<path d="M254.189 140.8L297.789 36.7H341.189L327.189 70.2L360.889 36.7H409.489L356.289 86.9L367.189 140.8H320.189L313.689 101L297.989 140.8H254.189Z" fill="#290079"/>
<path d="M435.19 141.5C464.09 141.5 487.59 118 487.59 89.1C487.59 60.2 464.09 36.7 435.19 36.7C406.29 36.7 382.79 60.2 382.79 89.1C382.79 118 406.29 141.5 435.19 141.5Z" fill="#290079"/>
<path d="M472.09 52C474.99 54.9 477.59 58.2 479.79 61.8L536.39 20L472.09 52Z" fill="#AFE403"/>
<path d="M465.89 72C459.19 68.8 452.29 66.5 446.09 64.9L393.79 90.9L424.29 98.6L319.79 188L478.69 87.1L452.89 81.6L465.89 72Z" fill="#AFE403"/>
</svg>
