<svg width="166" height="155" viewBox="0 0 166 155" fill="none" xmlns="http://www.w3.org/2000/svg">
<g filter="url(#filter0_d_777_686)">
<path d="M18.6001 16C18.6001 7.1634 25.7635 0 34.6001 0H141.6C150.437 0 157.6 7.1634 157.6 16V123C157.6 131.837 150.437 139 141.6 139H34.6001C25.7635 139 18.6001 131.837 18.6001 123V16Z" fill="#290079"/>
<path d="M26.6001 117.567L85.9508 66.3737L68.6096 61.9774L149.6 21.4333L102.168 56.7018L116.823 59.8281L26.6001 117.567Z" fill="#AFE403"/>
<path d="M27.6784 113.933L7.77796 135.035C8.00643 135.834 8.41083 136.569 8.96072 137.186C9.5106 137.803 10.1916 138.286 10.9525 138.598C11.7134 138.91 12.5344 139.043 13.3536 138.988C14.1727 138.932 14.9688 138.689 15.6818 138.277L38.0735 125.37L27.6784 113.933Z" fill="#EA4335"/>
<path d="M47.8012 110.346L38.1179 104.733L27.2186 114.414L38.1624 125.34L47.7715 119.787C48.3852 119.464 48.9299 119.021 49.3741 118.485C49.8184 117.948 50.1535 117.328 50.3602 116.66C50.5669 115.992 50.6411 115.289 50.5786 114.592C50.5161 113.895 50.318 113.217 49.9959 112.598C49.4932 111.639 48.7184 110.855 47.7715 110.346H47.8012Z" fill="#FBBC04"/>
<path d="M7.77805 94.992C7.65964 95.443 7.59982 95.907 7.6001 96.373V133.655C7.59982 134.121 7.65955 134.585 7.77796 135.035L28.3606 114.474L7.77805 94.992Z" fill="#4285F4"/>
<path d="M27.8267 115.014L38.1179 104.733L15.7559 91.765C14.9144 91.267 13.9578 91.003 12.9829 91C11.8055 90.998 10.6596 91.385 9.71985 92.103C8.78015 92.821 8.0982 93.831 7.77796 94.977L27.8267 115.014Z" fill="#34A853"/>
</g>
<defs>
<filter id="filter0_d_777_686" x="9.77516e-05" y="0" width="165.2" height="154.6" filterUnits="userSpaceOnUse" color-interpolation-filters="sRGB">
<feFlood flood-opacity="0" result="BackgroundImageFix"/>
<feColorMatrix in="SourceAlpha" type="matrix" values="0 0 0 0 0 0 0 0 0 0 0 0 0 0 0 0 0 0 127 0" result="hardAlpha"/>
<feOffset dy="8"/>
<feGaussianBlur stdDeviation="3.8"/>
<feComposite in2="hardAlpha" operator="out"/>
<feColorMatrix type="matrix" values="0 0 0 0 0.686275 0 0 0 0 0.894118 0 0 0 0 0.0117647 0 0 0 0.7 0"/>
<feBlend mode="normal" in2="BackgroundImageFix" result="effect1_dropShadow_777_686"/>
<feBlend mode="normal" in="SourceGraphic" in2="effect1_dropShadow_777_686" result="shape"/>
</filter>
</defs>
</svg>
