<svg width="141" height="141" viewBox="0 0 141 141" fill="none" xmlns="http://www.w3.org/2000/svg">
<g filter="url(#filter0_d_735_769)">
<path d="M132.6 62.5C132.6 97.0178 104.618 125 70.1 125C35.5822 125 7.60001 97.0178 7.60001 62.5C7.60001 27.9822 35.5822 0 70.1 0C104.618 0 132.6 27.9822 132.6 62.5Z" fill="#290079"/>
<path d="M100.933 59.2897C100.933 42.2253 86.9134 28.3333 69.683 28.3333C52.4526 28.3333 38.4333 42.226 38.4333 59.2897C38.4333 64.5584 39.7787 69.6445 42.3069 74.1823L41.3955 73.7952C40.8421 73.5586 40.2019 73.8167 39.974 74.365C39.7353 74.9134 39.9957 75.5479 40.5491 75.7736L44.5747 77.4833C44.6289 77.5048 44.694 77.5263 44.7591 77.5478C44.8459 77.5693 44.9327 77.5801 45.0304 77.5801H45.1389C45.3017 77.5693 45.4536 77.5156 45.5946 77.4296C45.7248 77.3543 45.8442 77.2468 45.931 77.107C45.9961 77.0102 46.0504 76.8919 46.0829 76.7629C46.1046 76.6984 46.1046 76.6339 46.1155 76.5693L46.5278 72.2469C46.582 71.6555 46.148 71.1286 45.5513 71.0748C44.9436 71.0103 44.4228 71.4512 44.3686 72.0425L44.2601 73.2038C41.8729 68.9781 40.6034 64.2253 40.6034 59.2898C40.6034 43.4084 53.6457 30.484 69.683 30.484C85.7204 30.484 98.7626 43.4084 98.7626 59.2898C98.7626 61.763 98.448 64.1823 97.8403 66.5369C98.7843 60.2681 96.267 56.1821 93.8473 53.8169C88.8886 48.946 80.2842 47.1287 71.951 49.1932C70.6381 49.5158 69.3577 49.8706 68.099 50.2255C63.1077 51.6018 58.7894 52.7954 54.5248 51.6878C54.1885 51.6018 53.8304 51.6771 53.5591 51.8921C53.2879 52.1072 53.1468 52.4405 53.1577 52.7846C53.5591 60.5691 57.4437 68.7197 63.3249 74.3007C60.6557 78.634 58.3337 82.3653 54.482 84.4085C54.1781 84.5698 53.972 84.8708 53.9177 85.2041C53.8743 85.5482 53.9937 85.8815 54.2433 86.1289C60.07 91.6987 68.5549 95 76.8555 95C77.6151 95 78.3855 94.9678 79.145 94.914C88.2054 94.2366 95.7574 90.2474 98.8608 84.4945C100.445 81.5591 101.573 76.86 98.8283 70.4518C100.217 66.9035 100.933 63.1503 100.933 59.2897ZM55.4359 54.0639C59.7761 54.7521 64.1052 53.5478 68.6733 52.2898C69.9102 51.9457 71.1798 51.6016 72.471 51.279C79.9689 49.4296 87.9438 51.0639 92.3167 55.3434C94.9534 57.9348 96.1361 61.3111 95.8105 65.2034C92.2841 60.6443 87.9328 59.4938 84.721 59.3971C77.744 59.1605 70.2031 63.6658 65.5157 70.8054C65.1684 71.3431 64.8212 71.8807 64.4957 72.4075C59.5261 67.5581 56.163 60.7302 55.4359 54.0639ZM96.9501 83.4829C94.194 88.5904 87.3148 92.1496 78.9926 92.7731C71.0719 93.3538 62.706 90.6119 56.8032 85.5261C60.449 83.096 62.7928 79.2896 65.267 75.2786C65.9398 74.1926 66.6234 73.0851 67.3395 71.9776C71.5496 65.5475 78.5373 61.3647 84.6574 61.5478C89.1821 61.6875 92.9365 64.1284 95.4969 68.6125C95.855 69.2361 96.1696 69.849 96.4626 70.4619C94.8133 73.9027 91.3194 76.8812 86.9682 78.5052C82.845 80.0321 78.7433 80.0858 75.7051 78.6342C75.1626 78.3761 74.5224 78.6019 74.2511 79.1396C73.9907 79.6772 74.2186 80.3224 74.7611 80.5696C76.5189 81.4084 78.5697 81.8277 80.7506 81.8277C82.9859 81.8277 85.3621 81.3868 87.7277 80.5051C91.8943 78.9567 95.388 76.2363 97.4928 73.0103C98.7841 76.9027 98.5994 80.4075 96.9501 83.4829Z" fill="#AFE403"/>
</g>
<defs>
<filter id="filter0_d_735_769" x="6.19888e-06" y="0" width="140.2" height="140.6" filterUnits="userSpaceOnUse" color-interpolation-filters="sRGB">
<feFlood flood-opacity="0" result="BackgroundImageFix"/>
<feColorMatrix in="SourceAlpha" type="matrix" values="0 0 0 0 0 0 0 0 0 0 0 0 0 0 0 0 0 0 127 0" result="hardAlpha"/>
<feOffset dy="8"/>
<feGaussianBlur stdDeviation="3.8"/>
<feComposite in2="hardAlpha" operator="out"/>
<feColorMatrix type="matrix" values="0 0 0 0 0.686275 0 0 0 0 0.894118 0 0 0 0 0.0117647 0 0 0 0.7 0"/>
<feBlend mode="normal" in2="BackgroundImageFix" result="effect1_dropShadow_735_769"/>
<feBlend mode="normal" in="SourceGraphic" in2="effect1_dropShadow_735_769" result="shape"/>
</filter>
</defs>
</svg>
