<svg width="24" height="24" viewBox="0 0 24 24" fill="none" xmlns="http://www.w3.org/2000/svg">
<path d="M22.4832 10.7053L6.75003 1.70252C6.52067 1.56877 6.25992 1.49829 5.99441 1.49829C5.7289 1.49829 5.46815 1.56877 5.23878 1.70252C5.01281 1.83209 4.82532 2.01938 4.69552 2.24523C4.56571 2.47107 4.49825 2.72735 4.50003 2.98783V21.0122C4.49929 21.2724 4.56764 21.5282 4.69809 21.7533C4.82854 21.9785 5.01642 22.165 5.24253 22.2938C5.4719 22.4275 5.73265 22.498 5.99816 22.498C6.26367 22.498 6.52442 22.4275 6.75378 22.2938L22.4832 13.2938C22.7153 13.1665 22.9089 12.9792 23.0437 12.7514C23.1786 12.5236 23.2498 12.2638 23.2498 11.9991C23.2498 11.7344 23.1786 11.4745 23.0437 11.2468C22.9089 11.019 22.7153 10.8317 22.4832 10.7044V10.7053ZM6.00003 19.9378V4.0622L13.9397 12L6.00003 19.9378ZM15 13.0603L16.7738 14.8341L8.47691 19.5835L15 13.0603ZM8.47503 4.41564L16.7747 9.16595L15 10.9397L8.47503 4.41564ZM18.1228 14.0625L16.0603 12L18.1228 9.93752L21.7257 12L18.1228 14.0625Z" fill="#290079"/>
</svg>
