<svg width="30" height="30" viewBox="0 0 30 30" fill="none" xmlns="http://www.w3.org/2000/svg">
<circle cx="15" cy="15" r="15" fill="#C00000"/>
<path d="M21.2167 17.0477C21.3345 16.9991 21.5467 16.8966 21.5992 16.8701C22.428 16.445 23.0392 15.9425 23.4142 15.3778C23.8095 14.804 24.0142 14.1193 23.9992 13.4202C23.9992 12.4691 23.6572 11.7556 22.9507 11.2387C22.2592 10.7317 21.282 10.5017 20.0452 10.4706H7.01775L6 12.7834H10.146C10.1513 12.7832 10.1566 12.7842 10.1615 12.7863C10.1665 12.7884 10.1709 12.7916 10.1745 12.7955C10.1762 12.7975 10.1773 12.7998 10.1778 12.8023C10.1784 12.8049 10.1782 12.8075 10.1775 12.8099L8.08875 19.1813H10.8397C10.887 19.1813 10.9297 19.1502 10.9447 19.1039L13.014 12.8016C13.0166 12.7955 13.021 12.7904 13.0267 12.7871C13.0324 12.7838 13.039 12.7825 13.0455 12.7834L15.1627 12.7841C15.1737 12.7841 15.1832 12.7879 15.1912 12.7955C15.1929 12.7975 15.1941 12.7998 15.1946 12.8023C15.1951 12.8049 15.195 12.8075 15.1942 12.8099L13.1047 19.1813H15.8565C15.9045 19.1813 15.9465 19.1495 15.9615 19.1032L16.518 17.3877C16.5206 17.3816 16.525 17.3765 16.5307 17.3733C16.5364 17.37 16.543 17.3687 16.5495 17.3695C16.5495 17.3695 18.3885 17.3733 18.3885 17.3718C19.0365 18.4064 19.7437 19.5563 20.3505 20.5294L23.2335 20.5279C23.322 20.5279 23.376 20.4292 23.3272 20.3541L21.2032 17.0742C21.1957 17.0575 21.213 17.0553 21.2167 17.0477ZM20.8792 14.5011C20.5515 14.8138 19.9905 14.9656 19.257 14.9656H17.3197L18.0337 12.7841L19.7985 12.7849C20.6535 12.7978 21.168 13.175 21.177 13.7997C21.1795 13.9313 21.1542 14.062 21.1028 14.1829C21.0515 14.3038 20.9753 14.4123 20.8792 14.5011Z" fill="#FEFEFE"/>
</svg>
