<svg width="141" height="141" viewBox="0 0 141 141" fill="none" xmlns="http://www.w3.org/2000/svg">
<g filter="url(#filter0_d_735_767)">
<path d="M132.6 62.5C132.6 97.0178 104.618 125 70.1 125C35.5822 125 7.60001 97.0178 7.60001 62.5C7.60001 27.9822 35.5822 0 70.1 0C104.618 0 132.6 27.9822 132.6 62.5Z" fill="#290079"/>
<path d="M83.6942 82.7917L82.9359 76.7164C82.7512 75.268 81.4973 74.1696 80.0392 74.1696H62.0948C60.6367 74.1696 59.3828 75.268 59.1981 76.7261L57.4678 90.5779C57.3998 91.1126 57.7789 91.5986 58.3135 91.6666H58.4302C58.9162 91.6666 59.3342 91.307 59.3925 90.8112L60.2576 83.8902H65.2346C65.7692 83.8902 66.2066 83.4527 66.2066 82.9181C66.2066 82.3835 65.7692 81.946 65.2346 81.946H60.5006L61.1228 76.9691C61.1908 76.4831 61.5991 76.1137 62.0948 76.1137H80.0392C80.5252 76.1137 80.9432 76.4831 81.0113 76.9594L81.6334 81.946H69.1232C68.5886 81.946 68.1511 82.3835 68.1511 82.9181C68.1511 83.4527 68.5886 83.8902 69.1232 83.8902H81.8766L82.7418 90.8112C82.8001 91.307 83.2181 91.6666 83.7041 91.6666H83.8208C84.3554 91.5986 84.7345 91.1126 84.6665 90.5779L83.6944 82.8015L83.6942 82.7917Z" fill="#AFE403"/>
<path d="M81.7601 44.998C80.9532 44.998 80.2048 45.2411 79.5827 45.6687C79.048 44.1523 77.6191 43.0539 75.9277 43.0539C74.9653 43.0539 74.1002 43.4136 73.4295 43.9871C73.2643 43.7149 73.0796 43.4525 72.8463 43.2192C72.1075 42.4804 71.1355 42.0819 70.0953 42.0819C69.1622 42.0819 68.2776 42.4221 67.5972 42.9956C67.4319 42.7234 67.2375 42.4804 67.0139 42.2472C66.2752 41.5084 65.3031 41.1099 64.263 41.1099C62.1147 41.1099 60.3747 42.8499 60.3747 44.9981C60.3747 45.5327 60.8122 45.9702 61.3468 45.9702C61.8814 45.9702 62.3189 45.5327 62.3189 44.9981C62.3189 43.9288 63.1937 43.054 64.263 43.054C64.7782 43.054 65.2642 43.2581 65.6336 43.6275C66.0029 43.9969 66.2071 44.4829 66.2071 44.9981C66.2071 45.5133 66.6154 45.941 67.1306 45.9701H67.3055C67.7624 46.0285 68.1415 45.7369 68.2776 45.3286C68.5401 44.551 69.2788 44.0358 70.0954 44.0358C70.6106 44.0358 71.0966 44.2399 71.466 44.6093C71.8353 44.9787 72.0395 45.4647 72.0395 45.9799V51.8123C72.0395 53.9605 73.7795 55.7005 75.9277 55.7005C76.7345 55.7005 77.483 55.4575 78.1051 55.0298C78.6398 56.5462 80.0687 57.6446 81.7601 57.6446C82.4697 57.6446 83.1307 57.4405 83.7042 57.1003V62.3105C83.7042 64.138 83.1404 65.8974 82.0808 67.3944L79.709 70.7189C79.398 71.1563 79.4952 71.759 79.9326 72.0798C80.1076 72.1964 80.302 72.2645 80.4964 72.2645C80.7977 72.2645 81.0991 72.1187 81.2934 71.8562L83.6653 68.5317C84.9679 66.7043 85.658 64.556 85.658 62.3202V48.9061C85.658 46.7579 83.918 45.0179 81.7697 45.0179L81.7601 44.998ZM75.9277 53.7463C74.8584 53.7463 73.9836 52.8715 73.9836 51.8022V46.9418C73.9836 45.8726 74.8584 44.9977 75.9277 44.9977C76.997 44.9977 77.8718 45.8726 77.8718 46.9418V51.8022C77.8718 52.8715 76.997 53.7463 75.9277 53.7463ZM81.7601 55.6904C80.6908 55.6904 79.8159 54.8156 79.8159 53.7463V48.886C79.8159 47.8167 80.6908 46.9418 81.7601 46.9418C82.8294 46.9418 83.7042 47.8167 83.7042 48.886V53.7463C83.7042 54.8156 82.8294 55.6904 81.7601 55.6904Z" fill="#AFE403"/>
<path d="M67.1786 47.9139H59.4021C56.7192 47.9139 54.5418 50.0913 54.5418 52.7742V54.7184C54.5418 55.253 54.9792 55.6904 55.5139 55.6904C56.0485 55.6904 56.4859 55.253 56.4859 54.7184V52.7742C56.4859 51.1703 57.7982 49.8581 59.4021 49.8581H67.1786C67.7132 49.8581 68.1507 50.2955 68.1507 50.8301C68.1507 51.8702 67.7424 52.8423 67.0231 53.5811C66.2843 54.3101 65.3025 54.7184 64.2624 54.7184H61.3462C60.8699 54.7184 60.4616 55.0683 60.3839 55.5349C60.3061 56.0015 60.588 56.4584 61.0352 56.6139L62.26 57.0222C64.6221 57.8095 66.2066 60.0064 66.2066 62.4949C66.2066 63.0295 66.644 63.4669 67.1787 63.4669C67.7133 63.4669 68.1507 63.0295 68.1507 62.4949C68.1507 60.1425 67.1009 57.9942 65.3706 56.5556C66.5079 56.3417 67.548 55.7876 68.3937 54.9517C69.4921 53.8436 70.0948 52.3757 70.0948 50.8301C70.0948 49.2846 68.7825 47.9139 67.1786 47.9139Z" fill="#AFE403"/>
<path d="M59.0526 67.5692C57.4001 65.9167 56.4863 63.7198 56.4863 61.3869V58.6068C56.4863 58.0721 56.0489 57.6347 55.5143 57.6347C54.9796 57.6347 54.5422 58.0721 54.5422 58.6068V61.3869C54.5422 64.2448 55.6503 66.9276 57.6722 68.9494L60.7051 71.9822C60.8995 72.1766 61.1425 72.2641 61.3952 72.2641C61.648 72.2641 61.891 72.1669 62.0854 71.9822C62.4645 71.6031 62.4645 70.9907 62.0854 70.6116L59.0526 67.5788V67.5692Z" fill="#AFE403"/>
<path d="M89.5364 44.998C89.0017 44.998 88.5643 44.5606 88.5643 44.026C88.5643 41.8777 86.8243 40.1377 84.6761 40.1377C84.1414 40.1377 83.704 39.7003 83.704 39.1657C83.704 38.631 84.1414 38.1936 84.6761 38.1936C86.8243 38.1936 88.5643 36.4536 88.5643 34.3054C88.5643 33.7707 89.0017 33.3333 89.5364 33.3333C90.071 33.3333 90.5084 33.7707 90.5084 34.3054C90.5084 36.4536 92.2484 38.1936 94.3967 38.1936C94.9313 38.1936 95.3687 38.631 95.3687 39.1657C95.3687 39.7003 94.9313 40.1377 94.3967 40.1377C92.2484 40.1377 90.5084 41.8777 90.5084 44.026C90.5084 44.5606 90.071 44.998 89.5364 44.998ZM87.8936 39.1657C88.5449 39.5934 89.099 40.1572 89.5364 40.8084C89.9641 40.1572 90.5279 39.6031 91.1791 39.1657C90.5278 38.738 89.9738 38.1742 89.5364 37.5229C89.1087 38.1742 88.5448 38.7283 87.8936 39.1657Z" fill="#AFE403"/>
<path d="M50.6541 44.998C50.1195 44.998 49.6821 44.5606 49.6821 44.026C49.6821 41.8777 47.9421 40.1377 45.7938 40.1377C45.2592 40.1377 44.8218 39.7003 44.8218 39.1657C44.8218 38.631 45.2592 38.1936 45.7938 38.1936C47.9421 38.1936 49.6821 36.4536 49.6821 34.3054C49.6821 33.7707 50.1195 33.3333 50.6541 33.3333C51.1888 33.3333 51.6262 33.7707 51.6262 34.3054C51.6262 36.4536 53.3662 38.1936 55.5144 38.1936C56.0491 38.1936 56.4865 38.631 56.4865 39.1657C56.4865 39.7003 56.0491 40.1377 55.5144 40.1377C53.3662 40.1377 51.6262 41.8777 51.6262 44.026C51.6262 44.5606 51.1888 44.998 50.6541 44.998ZM49.0114 39.1657C49.6627 39.5934 50.2167 40.1572 50.6541 40.8084C51.0818 40.1572 51.6457 39.6031 52.2969 39.1657C51.6456 38.738 51.0915 38.1742 50.6541 37.5229C50.2264 38.1742 49.6626 38.7283 49.0114 39.1657Z" fill="#AFE403"/>
<path d="M93.4247 69.2999C92.8901 69.2999 92.4527 68.8624 92.4527 68.3278C92.4527 66.1796 90.7126 64.4396 88.5644 64.4396C88.0298 64.4396 87.5924 64.0021 87.5924 63.4675C87.5924 62.9329 88.0298 62.4954 88.5644 62.4954C90.7126 62.4954 92.4527 60.7554 92.4527 58.6072C92.4527 58.0726 92.8901 57.6351 93.4247 57.6351C93.9594 57.6351 94.3968 58.0726 94.3968 58.6072C94.3968 60.7554 96.1368 62.4954 98.285 62.4954C98.8197 62.4954 99.2571 62.9329 99.2571 63.4675C99.2571 64.0021 98.8197 64.4396 98.285 64.4396C96.1368 64.4396 94.3968 66.1796 94.3968 68.3278C94.3968 68.8624 93.9594 69.2999 93.4247 69.2999ZM91.782 63.4675C92.4332 63.8952 92.9873 64.459 93.4247 65.1103C93.8524 64.459 94.4162 63.9049 95.0675 63.4675C94.4162 63.0398 93.8621 62.476 93.4247 61.8247C92.997 62.476 92.4332 63.0301 91.782 63.4675Z" fill="#AFE403"/>
<path d="M46.7658 69.2999C46.2311 69.2999 45.7937 68.8624 45.7937 68.3278C45.7937 66.1796 44.0537 64.4396 41.9055 64.4396C41.3708 64.4396 40.9334 64.0021 40.9334 63.4675C40.9334 62.9329 41.3708 62.4954 41.9055 62.4954C44.0537 62.4954 45.7937 60.7554 45.7937 58.6072C45.7937 58.0726 46.2311 57.6351 46.7658 57.6351C47.3004 57.6351 47.7378 58.0726 47.7378 58.6072C47.7378 60.7554 49.4778 62.4954 51.6261 62.4954C52.1607 62.4954 52.5981 62.9329 52.5981 63.4675C52.5981 64.0021 52.1607 64.4396 51.6261 64.4396C49.4778 64.4396 47.7378 66.1796 47.7378 68.3278C47.7378 68.8624 47.3004 69.2999 46.7658 69.2999ZM45.123 63.4675C45.7743 63.8952 46.3284 64.459 46.7658 65.1103C47.1935 64.459 47.7573 63.9049 48.4085 63.4675C47.7573 63.0398 47.2032 62.476 46.7658 61.8247C46.3381 62.476 45.7743 63.0301 45.123 63.4675Z" fill="#AFE403"/>
</g>
<defs>
<filter id="filter0_d_735_767" x="6.19888e-06" y="0" width="140.2" height="140.6" filterUnits="userSpaceOnUse" color-interpolation-filters="sRGB">
<feFlood flood-opacity="0" result="BackgroundImageFix"/>
<feColorMatrix in="SourceAlpha" type="matrix" values="0 0 0 0 0 0 0 0 0 0 0 0 0 0 0 0 0 0 127 0" result="hardAlpha"/>
<feOffset dy="8"/>
<feGaussianBlur stdDeviation="3.8"/>
<feComposite in2="hardAlpha" operator="out"/>
<feColorMatrix type="matrix" values="0 0 0 0 0.686275 0 0 0 0 0.894118 0 0 0 0 0.0117647 0 0 0 0.7 0"/>
<feBlend mode="normal" in2="BackgroundImageFix" result="effect1_dropShadow_735_767"/>
<feBlend mode="normal" in="SourceGraphic" in2="effect1_dropShadow_735_767" result="shape"/>
</filter>
</defs>
</svg>
