<svg width="141" height="141" viewBox="0 0 141 141" fill="none" xmlns="http://www.w3.org/2000/svg">
<g filter="url(#filter0_d_735_768)">
<path d="M132.6 62.5C132.6 97.0178 104.618 125 70.1 125C35.5822 125 7.6 97.0178 7.6 62.5C7.6 27.9822 35.5822 0 70.1 0C104.618 0 132.6 27.9822 132.6 62.5Z" fill="#290079"/>
<path d="M48.8049 60.434C48.8049 62.3664 45.9063 62.3664 45.9063 60.434C45.9063 58.5016 48.8049 58.5016 48.8049 60.434Z" fill="#AFE403"/>
<path d="M48.8049 72.0285C48.8049 73.9609 45.9063 73.9609 45.9063 72.0285C45.9063 70.096 48.8049 70.096 48.8049 72.0285Z" fill="#AFE403"/>
<path d="M48.8049 83.6228C48.8049 85.5553 45.9063 85.5553 45.9063 83.6228C45.9063 81.6904 48.8049 81.6904 48.8049 83.6228Z" fill="#AFE403"/>
<path d="M95.1827 60.434C95.1827 62.3664 92.284 62.3664 92.284 60.434C92.284 58.5016 95.1827 58.5016 95.1827 60.434Z" fill="#AFE403"/>
<path d="M95.1827 72.0285C95.1827 73.9609 92.284 73.9609 92.284 72.0285C92.284 70.096 95.1827 70.096 95.1827 72.0285Z" fill="#AFE403"/>
<path d="M95.1827 83.6228C95.1827 85.5553 92.284 85.5553 92.284 83.6228C92.284 81.6904 95.1827 81.6904 95.1827 83.6228Z" fill="#AFE403"/>
<path d="M70.5444 61.8833C62.552 61.8833 56.0513 68.384 56.0513 76.3763C56.0513 86.8384 65.0911 96.6666 70.5444 96.6666C75.9977 96.6666 85.0375 86.8384 85.0375 76.3763C85.0375 68.3839 78.5367 61.8833 70.5444 61.8833ZM70.5444 93.768C67.2774 93.768 58.95 86.0565 58.95 76.3763C58.95 69.9843 64.1524 64.7819 70.5444 64.7819C76.9364 64.7819 82.1389 69.9843 82.1389 76.3763C82.1389 86.0562 73.8117 93.768 70.5444 93.768Z" fill="#AFE403"/>
<path d="M70.5442 70.5791C67.3467 70.5791 64.747 73.1789 64.747 76.3764C64.747 79.5739 67.3467 82.1736 70.5442 82.1736C73.7418 82.1736 76.3415 79.5739 76.3415 76.3764C76.3415 73.1789 73.7418 70.5791 70.5442 70.5791ZM70.5442 79.275C68.947 79.275 67.6456 77.9736 67.6456 76.3764C67.6456 74.7791 68.947 73.4778 70.5442 73.4778C72.1415 73.4778 73.4429 74.7791 73.4429 76.3764C73.4429 77.9736 72.1415 79.275 70.5442 79.275Z" fill="#AFE403"/>
<path d="M100.98 57.5354C100.98 55.3886 99.4099 53.6102 97.3597 53.2599C97.8186 51.7956 98.0813 50.2828 98.0813 48.9543C98.0813 45.171 96.8343 42.84 94.0504 41.3756C92.1663 40.3762 90.5872 40.6932 89.1953 40.971C89.156 40.9771 89.1228 40.9801 89.0836 40.9861C89.5546 39.3526 90.554 38.3049 90.5872 38.2717C91.1519 37.7101 91.1579 36.7952 90.5993 36.2276C90.0377 35.6569 89.1198 35.6509 88.5492 36.2125C88.4586 36.3031 86.644 38.1419 86.1034 41.0465C85.9283 41.0224 85.7532 41.0043 85.572 40.9711C84.2556 40.7084 82.7459 40.4155 80.9675 41.27C80.5055 39.3043 79.1558 37.6195 77.2748 36.7922C77.1812 35.2523 76.5984 33.7879 75.5869 32.5862C74.3399 31.1036 72.5917 30.1948 70.6714 30.0288C68.7389 29.8597 66.8669 30.4394 65.3844 31.6834C64.1767 32.6919 63.3494 34.0355 62.993 35.5391C60.333 36.2004 58.2889 38.4981 58.0533 41.273C57.9567 42.2603 58.0986 43.2447 58.467 44.1806C58.3704 44.2622 58.2949 44.3618 58.2043 44.4494C56.8939 42.369 54.6354 41.0073 52.1413 40.8955L53.4668 38.0512C53.805 37.3266 53.491 36.463 52.7663 36.1249C52.0417 35.7867 51.1781 36.1007 50.8399 36.8254L49.8677 38.9087L49.0827 36.7498C48.8079 35.998 47.9776 35.6085 47.2258 35.8833C46.474 36.158 46.0844 36.9884 46.3592 37.7402L47.1442 39.8991L45.0609 38.9268C44.3362 38.5886 43.4727 38.9027 43.1345 39.6273C42.7963 40.352 43.1103 41.2155 43.835 41.5537L46.6793 42.8823C45.8973 43.6009 45.2572 44.4735 44.8374 45.4608C44.0101 47.3751 44.0252 49.5762 44.8525 51.4754L45.5983 53.1843H44.4479C42.0505 53.1843 40.1 55.1348 40.1 57.5323V63.3295C40.1 64.4497 40.5318 65.4642 41.2292 66.2341C40.5348 67.0041 40.1 68.0126 40.1 69.1267V74.924C40.1 76.0441 40.5318 77.0586 41.2262 77.8286C40.5348 78.5985 40.1 79.607 40.1 80.7212V86.5184C40.1 88.9158 42.0505 90.8663 44.4479 90.8663H55.3027C56.1028 90.8663 56.752 90.2172 56.752 89.417C56.752 88.6169 56.1028 87.9677 55.3027 87.9677H44.4479C43.6478 87.9677 42.9986 87.3186 42.9986 86.5184V80.7212C42.9986 79.921 43.6478 79.2719 44.4479 79.2719H51.7367C52.5369 79.2719 53.1861 78.6227 53.1861 77.8226C53.1861 77.0224 52.5369 76.3733 51.7367 76.3733H44.4479C43.6508 76.3733 42.9986 75.7211 42.9986 74.924V69.1267C42.9986 68.3296 43.6508 67.6774 44.4479 67.6774H54.6657C55.4628 67.6774 56.115 67.0252 56.115 66.2281C56.115 65.431 55.4629 64.7788 54.6657 64.7788H44.4479C43.6478 64.7788 42.9986 64.1296 42.9986 63.3295V57.5323C42.9986 56.7321 43.6478 56.083 44.4479 56.083H96.623C97.4232 56.083 98.0723 56.7321 98.0723 57.5323V63.3295C98.0723 64.1297 97.4231 64.7788 96.623 64.7788H86.4052C85.6081 64.7788 84.9559 65.431 84.9559 66.2281C84.9559 67.0252 85.6081 67.6774 86.4052 67.6774H96.623C97.4201 67.6774 98.0723 68.3296 98.0723 69.1267V74.924C98.0723 75.721 97.4201 76.3733 96.623 76.3733H89.3342C88.534 76.3733 87.8849 77.0224 87.8849 77.8226C87.8849 78.6227 88.534 79.2719 89.3342 79.2719H96.623C97.4232 79.2719 98.0723 79.921 98.0723 80.7212V86.5184C98.0723 87.3186 97.4231 87.9677 96.623 87.9677H85.7683C84.9681 87.9677 84.319 88.6169 84.319 89.417C84.319 90.2172 84.9681 90.8663 85.7683 90.8663H96.623C99.0204 90.8663 100.971 88.9158 100.971 86.5184V80.7212C100.971 79.604 100.536 78.5955 99.8417 77.8256C100.539 77.0556 100.971 76.0381 100.971 74.924V69.1267C100.971 68.0096 100.533 66.9981 99.8356 66.2251C100.536 65.4582 100.971 64.4467 100.971 63.3295V57.5323L100.98 57.5354ZM85.0074 43.8091C85.7018 43.9389 86.499 44.0989 87.3836 44.0989C88.2683 44.0989 89.0654 43.9389 89.7599 43.8091C91.0492 43.5494 91.7617 43.4467 92.6887 43.9238C94.2256 44.736 95.1828 45.8653 95.1828 48.9541C95.1828 49.9686 94.9261 51.5538 94.3102 53.1873H80.478C79.859 51.5568 79.6054 49.9686 79.6054 48.9541C79.6054 45.8683 80.5625 44.736 82.0994 43.9238C83.0263 43.4467 83.7359 43.5464 85.0131 43.8091H85.0074ZM61.0362 45.9166C61.3925 45.7234 61.6492 45.3882 61.7458 44.9957C61.8454 44.6032 61.7729 44.1865 61.5495 43.8483C61.2174 43.3441 60.843 42.5379 60.9426 41.5355C61.0966 39.7389 62.5308 38.356 64.3515 38.2504C65.0701 38.2081 65.6499 37.571 65.7103 36.8554C65.8099 35.699 66.3564 34.6482 67.2471 33.9025C68.1348 33.1597 69.2521 32.8124 70.4175 32.9121C71.574 33.0118 72.6217 33.5583 73.3705 34.446C74.077 35.2884 74.4363 36.3391 74.382 37.5318C74.3639 37.6284 74.3548 37.7281 74.3548 37.8126C74.3548 38.486 74.8198 39.0717 75.475 39.2227C77.2534 39.6363 78.4249 41.2457 78.2589 43.0422C78.2438 43.1992 78.2076 43.3532 78.1744 43.5072C77.1749 44.8689 76.7039 46.6353 76.7039 48.9482C76.7039 50.2555 76.9546 51.7411 77.4014 53.1814H71.5045L73.7751 51.267C74.3971 50.7447 74.4696 49.8328 73.9623 49.2229C73.44 48.6009 72.5281 48.5285 71.9182 49.0357L70.3542 50.3552L70.629 47.2241L73.6302 44.7029C74.2371 44.1805 74.3247 43.2687 73.8054 42.6588C73.2981 42.0519 72.3863 41.9643 71.7613 42.4837L70.9793 43.1358L71.2389 40.2523C71.2963 39.4552 70.7166 38.7456 69.9195 38.6731C69.1072 38.6007 68.4128 39.1955 68.3403 39.9926L68.0927 42.8912L67.4254 42.1092C66.9182 41.4872 66.0064 41.4147 65.3964 41.922C64.7744 42.4443 64.7019 43.3562 65.2092 43.9661L67.7455 46.9794L67.4707 50.1105L66.1361 48.5465C65.6288 47.9245 64.714 47.8521 64.1071 48.3593C63.4851 48.8817 63.4126 49.7936 63.9199 50.4034L66.2568 53.1873H61.1057L59.4239 47.4897C59.8195 46.8315 60.372 46.279 61.0362 45.9166ZM47.5302 50.3159C46.9928 49.1142 46.9928 47.8098 47.5 46.605C48.0224 45.4033 48.9795 44.5035 50.2235 44.0536C50.7307 43.8664 51.2682 43.7638 51.8177 43.7638C53.8618 43.7638 55.7006 45.1557 56.2955 47.1274L58.086 53.1843H48.7741L47.5271 50.3129L47.5302 50.3159Z" fill="#AFE403"/>
</g>
<defs>
<filter id="filter0_d_735_768" x="-1.43051e-06" y="0" width="140.2" height="140.6" filterUnits="userSpaceOnUse" color-interpolation-filters="sRGB">
<feFlood flood-opacity="0" result="BackgroundImageFix"/>
<feColorMatrix in="SourceAlpha" type="matrix" values="0 0 0 0 0 0 0 0 0 0 0 0 0 0 0 0 0 0 127 0" result="hardAlpha"/>
<feOffset dy="8"/>
<feGaussianBlur stdDeviation="3.8"/>
<feComposite in2="hardAlpha" operator="out"/>
<feColorMatrix type="matrix" values="0 0 0 0 0.686275 0 0 0 0 0.894118 0 0 0 0 0.0117647 0 0 0 0.7 0"/>
<feBlend mode="normal" in2="BackgroundImageFix" result="effect1_dropShadow_735_768"/>
<feBlend mode="normal" in="SourceGraphic" in2="effect1_dropShadow_735_768" result="shape"/>
</filter>
</defs>
</svg>
