<svg width="47" height="52" viewBox="0 0 47 52" fill="none" xmlns="http://www.w3.org/2000/svg">
<path fill-rule="evenodd" clip-rule="evenodd" d="M21.7611 3.67059C11.7798 3.67059 3.68833 11.7231 3.68833 21.6565C3.68833 27.4771 6.46466 32.6517 10.7789 35.942C11.2548 36.3049 11.5237 36.8755 11.4998 37.4717L11.066 48.3294H29.0122L28.5562 43.6364C28.5043 43.1015 28.6905 42.5707 29.0659 42.1842C29.4412 41.7978 29.9679 41.5946 30.5069 41.6281L34.5986 41.8826C37.0759 42.0366 39.1701 40.0787 39.1701 37.6085V32.8885C39.1701 31.8749 39.9958 31.0532 41.0142 31.0532H43.055L39.9391 22.2673C39.8695 22.0711 39.834 21.8645 39.834 21.6565C39.834 11.7231 31.7425 3.67059 21.7611 3.67059ZM0 21.6565C0 9.69592 9.74278 0 21.7611 0C33.6718 0 43.3475 9.52297 43.52 21.3355L46.8222 30.6469C47.528 32.637 46.0445 34.7238 43.9238 34.7238H42.8584V37.6085C42.8584 42.196 38.9692 45.8322 34.3685 45.546L32.4356 45.4258L32.8788 49.9881C32.9289 50.5032 32.7581 51.0153 32.4086 51.3985C32.059 51.7815 31.5632 52 31.0432 52H9.14706C8.64526 52 8.1651 51.7965 7.81741 51.4364C7.46967 51.0764 7.28439 50.5908 7.30437 50.0918L7.77752 38.2503C3.02554 34.2802 0 28.3196 0 21.6565Z" fill="black"/>
<path d="M12.7598 23.5675C11.3197 23.0371 11.3197 21.01 12.7598 20.4796C16.3822 19.1457 19.2382 16.3034 20.5785 12.6985C21.1115 11.2652 23.1484 11.2652 23.6814 12.6985C25.0217 16.3034 27.8777 19.1457 31.5001 20.4796C32.9403 21.01 32.9403 23.0371 31.5001 23.5675C27.8777 24.9014 25.0217 27.7437 23.6814 31.3486C23.1484 32.7818 21.1115 32.7818 20.5785 31.3486C19.2382 27.7437 16.3822 24.9014 12.7598 23.5675Z" fill="black"/>
</svg>
