<svg width="60" height="44" viewBox="0 0 60 44" fill="none" xmlns="http://www.w3.org/2000/svg">
<path d="M30.9969 0.103605L59.1062 10.801L59.1362 10.8121L59.1661 10.8232L59.196 10.8358L59.2252 10.8493L59.2543 10.8628L59.263 10.8675L59.2826 10.877L59.2929 10.8825L59.311 10.8928L59.322 10.8992L59.3393 10.9087L59.3511 10.9158L59.3669 10.9253L59.3787 10.9332L59.3945 10.9427L59.4071 10.9514L59.4212 10.9601L59.4338 10.9696L59.448 10.9791L59.4606 10.9894L59.474 10.9989L59.4866 11.0092C59.5252 11.0392 59.5622 11.0717 59.5976 11.1057L59.6086 11.1168L59.6212 11.1295L59.6315 11.1406L59.6441 11.154L59.6527 11.1643L59.6669 11.1785L59.6748 11.188L59.6882 11.2039L59.6953 11.2126L59.7094 11.23L59.7149 11.2379L59.7504 11.2846L59.7701 11.3131L59.789 11.3416L59.8063 11.3701L59.8228 11.3978C59.8496 11.4445 59.874 11.4935 59.8937 11.5418L59.8984 11.5521L59.9055 11.5711L59.9331 11.6455L59.9378 11.6621L59.9472 11.693L59.952 11.7088L59.9764 11.818L59.9803 11.8363L59.9819 11.8497L59.9898 11.9004L59.9913 11.9138L59.9937 11.9328L59.9945 11.9463L59.9961 11.9653L59.9968 11.9787L59.9984 11.9977V12.0112L59.9992 12.0294V12.0436V12.0761V12.0943V12.1093L59.9984 12.1267L59.9976 12.1418L59.9968 12.1584L59.9953 12.175L59.9937 12.1908L59.9921 12.2074L59.9905 12.2225L59.9882 12.2407L59.9866 12.2541L59.9835 12.2731L59.9811 12.2858L59.9772 12.3064L59.9756 12.3175L59.9709 12.3388L59.9693 12.3491L59.9638 12.3721L59.9622 12.38L59.9559 12.4045L59.9464 12.4378L59.937 12.4702L59.926 12.5027L59.915 12.5335L59.9102 12.5454L59.9063 12.5557L59.9039 12.5636L59.8984 12.5763L59.8937 12.5866L59.8898 12.5961L59.885 12.6063L59.8811 12.6166L59.8764 12.6261L59.8716 12.6364L59.8669 12.6459L59.8622 12.6554L59.8575 12.6657L59.8527 12.6752L59.848 12.6847L59.8425 12.6942L59.8378 12.7037L59.8323 12.7132L59.8275 12.7227L59.822 12.7322L59.8165 12.7409L59.811 12.7504L59.8055 12.7591L59.8 12.7686L59.7945 12.7773L59.789 12.7868L59.7835 12.7955L59.7771 12.8042L59.7716 12.8129L59.7677 12.82L59.7598 12.8311L59.7535 12.8398L59.7488 12.847L59.7409 12.8564L59.7346 12.8652L59.7291 12.8731L59.722 12.8818L59.7157 12.8905L59.7094 12.8984L59.7031 12.9063L59.696 12.915L59.6897 12.9229L59.6827 12.9308L59.6764 12.9388L59.6693 12.9467L59.6622 12.9546L59.6551 12.9625L59.6488 12.9696L59.6417 12.9775L59.6346 12.9847L59.6267 12.9926L59.6197 12.9997L59.6126 13.0076L59.6055 13.0147L59.5992 13.0211L59.5905 13.029L59.5827 13.0361L59.5756 13.0432L59.5677 13.0504L59.5598 13.0575L59.5527 13.0638L59.5449 13.0709L59.537 13.0781L59.5291 13.0844L59.4992 13.1097L58.707 13.7817C58.6102 13.8941 58.5235 14.0104 58.4456 14.1315C58.1125 14.6523 57.9456 15.2641 57.9456 15.879C57.9456 16.4948 58.1125 17.1066 58.4456 17.6274C58.6708 17.9796 58.9755 18.297 59.3559 18.5494L59.3693 18.5581L59.3834 18.5669L59.4165 18.589L59.4378 18.6033L59.4449 18.6088L59.4645 18.623L59.4724 18.6286L59.4913 18.6428L59.4992 18.65L59.5173 18.6642L59.5252 18.6713L59.5425 18.6856L59.5504 18.6927L59.5677 18.7085L59.5748 18.7157L59.5921 18.7315L59.5992 18.7386L59.6157 18.7552L59.6228 18.7623L59.6394 18.7798L59.6456 18.7861L59.6622 18.8051L59.685 18.8312L59.7071 18.8581L59.7283 18.885L59.748 18.9119L59.7677 18.9396L59.785 18.9665L59.8023 18.9942L59.8189 19.0219L59.8504 19.0789L59.8646 19.1074L59.8779 19.1367L59.8913 19.166L59.8953 19.1739L59.9039 19.1961L59.9071 19.204L59.915 19.2261L59.9189 19.2348L59.926 19.2562L59.9299 19.2657L59.9362 19.2863L59.9401 19.2966L59.9457 19.3172L59.9488 19.3275L59.9543 19.348L59.9575 19.3591L59.9622 19.3797L59.9654 19.3908L59.9693 19.4106L59.9724 19.4224L59.9756 19.4422L59.9811 19.4739L59.9835 19.4857L59.9866 19.5055L59.9882 19.5174L59.9905 19.5372L59.9921 19.5499L59.9937 19.5688L59.9953 19.5815L59.9968 19.6013L59.9976 19.614L59.9984 19.633L59.9992 19.6456V19.6654L60 19.6781V19.6979V19.7097L59.9992 19.7303V19.7422L59.9984 19.762L59.9976 19.7738L59.9961 19.7944L59.9953 19.8063L59.9937 19.8269L59.9921 19.8379L59.9898 19.8593L59.9882 19.8704L59.9858 19.891L59.9842 19.9021L59.9803 19.9234L59.9787 19.9337L59.9748 19.9551L59.9724 19.9654L59.9677 19.9875L59.9661 19.9962L59.9606 20.0192L59.9583 20.0279L59.952 20.0508L59.9504 20.0588L59.9433 20.0825L59.9331 20.1142L59.9228 20.1458L59.911 20.1767L59.8984 20.2076L59.8858 20.2384L59.8716 20.2693L59.8567 20.2994L59.8417 20.3287L59.826 20.3571L59.8094 20.3856L59.7921 20.4133L59.7701 20.4466L59.7559 20.4679L59.7504 20.4751L59.7362 20.4949L59.7307 20.5028L59.7165 20.5218L59.7094 20.5297L59.6953 20.5479L59.6882 20.5558L59.674 20.5732L59.6669 20.5811L59.6512 20.5985L59.6441 20.6057L59.6283 20.6231L59.6212 20.6302L59.6047 20.6468L59.5976 20.6539L59.5803 20.6706L59.574 20.6769L59.5551 20.6935L59.5291 20.7165L59.5 20.741L32.4371 43.6839C32.0804 43.9855 31.5765 44.0907 31.1087 43.9143L30.4386 43.6594L30.3622 43.6301L5.26563 34.0787C5.1924 34.5417 5.15381 35.0649 5.15381 35.6545V40.1049C5.15381 40.845 4.55614 41.4457 3.81989 41.4457C3.08363 41.4457 2.48596 40.845 2.48596 40.1049V35.6545C2.48596 34.6977 2.57494 33.8516 2.7403 33.1037L2.67179 33.0617C1.94341 32.5916 1.3607 31.9901 0.929182 31.3157C0.31104 30.3486 0 29.2318 0 28.1214C0 27.011 0.309465 25.895 0.928395 24.9263C1.34574 24.2749 1.90246 23.6924 2.59699 23.2286L29.6228 0.316509C30.0173 -0.0190717 30.5504 -0.0839721 30.9969 0.103605ZM6.87201 28.4712C7.58229 28.2868 8.30831 28.7158 8.49178 29.4297C8.67526 30.1436 8.24846 30.8733 7.53819 31.0577C7.11533 31.1685 6.72712 31.3601 6.39561 31.6505L27.5865 39.714C27.5133 39.3388 27.477 38.9573 27.477 38.5774C27.477 37.467 27.7873 36.3502 28.4062 35.3815L28.4724 35.2802L3.6183 25.8214C3.44349 25.9908 3.29387 26.1752 3.16788 26.3715C2.83479 26.8923 2.66786 27.5048 2.66786 28.1214C2.66786 28.7372 2.83558 29.3497 3.16867 29.8705C3.33561 30.1317 3.54586 30.3731 3.79941 30.5836C4.59158 29.4511 5.66014 28.7886 6.87201 28.4712ZM33.0781 14.7655C32.3907 14.5059 32.0434 13.7342 32.3017 13.0432C32.56 12.3523 33.3277 12.0033 34.0152 12.2629L43.7196 15.9566C44.4071 16.2162 44.7543 16.9879 44.496 17.6788C44.2378 18.3698 43.47 18.7188 42.7826 18.4592L33.0781 14.7655ZM36.5476 11.2783C35.8601 11.0187 35.5129 10.247 35.7712 9.55605C36.0294 8.8651 36.7972 8.51607 37.4846 8.77567L47.1891 12.4686C47.8765 12.7282 48.2238 13.4999 47.9655 14.1909C47.7072 14.8818 46.9395 15.2308 46.252 14.9712L36.5476 11.2783ZM8.52013 24.8273L33.2836 3.83298L30.7433 2.8666L5.97905 23.8602L8.52013 24.8273ZM36.1334 4.91808L11.3699 25.9116L31.2749 33.4875L31.3048 33.4978L31.3166 33.5026L56.0809 12.509L36.1334 4.91808ZM55.3273 16.6468L32.4371 36.0527C32.0521 36.3803 31.5339 36.45 31.0938 36.2782C30.9205 36.4468 30.7709 36.6312 30.6457 36.8267C30.3126 37.3483 30.1449 37.9609 30.1449 38.5774C30.1449 39.1932 30.3126 39.8066 30.6457 40.3273C30.83 40.6146 31.0654 40.8774 31.3536 41.1022L56.6408 19.6654C56.4817 19.4762 56.3368 19.2776 56.2061 19.0726C55.7297 18.3278 55.4368 17.496 55.3273 16.6468Z" fill="black"/>
</svg>
