<svg width="24" height="24" viewBox="0 0 24 24" fill="none" xmlns="http://www.w3.org/2000/svg">
<path d="M16.0002 17.24C18.5002 16.94 20.6902 15.4 21.0002 13.99C21.2797 12.1971 21.4135 10.3845 21.4002 8.56996C21.3302 4.22996 18.4802 2.99996 18.4802 2.99996C16.4016 2.26459 14.2037 1.9254 12.0002 1.99996C9.79666 1.9254 7.5987 2.26459 5.52018 2.99996C5.52018 2.99996 2.68018 4.22996 2.68018 8.56996V12.01C2.78018 16.25 3.46018 20.43 7.38018 21.47C8.8824 21.8901 10.4418 22.069 12.0002 22C13.2222 21.9676 14.4256 21.6922 15.5402 21.19L15.4702 19.55C14.3435 19.8775 13.1731 20.0293 12.0002 20C10.2002 19.94 8.29018 19.81 8.00018 17.6C7.98463 17.3902 7.98463 17.1797 8.00018 16.97C9.31481 17.2685 10.6534 17.4492 12.0002 17.51C13.3388 17.5336 14.6769 17.4433 16.0002 17.24ZM9.46018 7.43996C8.56018 7.43996 8.11018 7.97996 8.11018 9.05996V14.16H6.00018V8.89996C5.95061 7.97498 6.24241 7.06399 6.82018 6.33996C7.09446 6.01833 7.43685 5.76175 7.82255 5.58879C8.20824 5.41584 8.62758 5.33084 9.05018 5.33996C9.52323 5.31456 9.99457 5.41501 10.4162 5.63108C10.8378 5.84715 11.1945 6.17111 11.4502 6.56996L11.9702 7.43996L12.4902 6.56996C12.7458 6.17111 13.1026 5.84715 13.5242 5.63108C13.9458 5.41501 14.4171 5.31456 14.8902 5.33996C15.3128 5.33084 15.7321 5.41584 16.1178 5.58879C16.5035 5.76175 16.8459 6.01833 17.1202 6.33996C17.7195 7.05539 18.0329 7.96725 18.0002 8.89996V14.16H15.8902V9.05996C15.8902 7.97996 15.4402 7.43996 14.5402 7.43996C13.5402 7.43996 13.0302 8.07996 13.0302 9.35996V12.15H11.0002V9.35996C11.0002 8.07996 10.4602 7.43996 9.46018 7.43996Z" fill="#290079"/>
</svg>
